<svg width="1920" height="820" viewBox="0 0 1920 820" fill="none" xmlns="http://www.w3.org/2000/svg">
<path opacity="0.2" fill-rule="evenodd" clip-rule="evenodd" d="M-405.523 736.783C-296.797 788.288 -14.1406 868.693 246.791 778.268C287.585 764.13 315.902 746.646 335.099 726.828C354.302 707.005 364.357 684.871 368.664 661.477C372.968 638.093 371.526 613.461 367.753 588.636C365.028 570.709 361.083 552.654 357.201 534.887L357.199 534.879C355.707 528.052 354.225 521.267 352.824 514.549C342.718 466.059 336.906 421.04 362.199 387.468C387.493 353.893 444.047 331.583 559.26 329.012C732.692 325.142 851.3 369.275 951.7 406.632C984.647 418.891 1015.63 430.42 1045.95 439.284C1107.31 457.222 1165.91 464.226 1232.41 444.175C1298.9 424.129 1373.23 377.058 1466.07 286.962C1558.83 196.955 1636.03 170.439 1704.8 179.123C1773.61 187.813 1834.11 231.754 1893.43 282.992C1907.77 295.382 1922.04 308.199 1936.35 321.043L1936.35 321.043C1981.16 361.28 2026.27 401.784 2074.72 430.249C2138.67 467.827 2208.5 484.476 2291.27 451.961L2290.9 451.03C2208.5 483.405 2138.98 466.853 2075.22 429.387C2026.87 400.977 1981.87 360.571 1937.08 320.35C1922.76 307.494 1908.46 294.656 1894.08 282.235C1834.76 230.994 1774.06 186.861 1704.93 178.131C1635.75 169.396 1558.26 196.115 1465.38 286.245C1372.58 376.286 1298.39 423.237 1232.12 443.218C1165.87 463.194 1107.48 456.23 1046.23 438.325C1016 429.486 985.069 417.976 952.158 405.73C851.734 368.363 732.881 324.138 559.238 328.013C444.004 330.584 387.001 352.885 361.4 386.866C335.798 420.849 341.752 466.328 351.845 514.753C353.25 521.492 354.735 528.289 356.228 535.123L356.23 535.131L356.231 535.134C360.11 552.889 364.045 570.894 366.764 588.786C370.529 613.561 371.956 638.068 367.68 661.296C363.406 684.514 353.434 706.464 334.381 726.133C315.322 745.807 287.157 763.22 246.463 777.323C-14.1278 867.63 -296.498 787.322 -405.095 735.879L-405.523 736.783ZM212.835 719.45C-48.0967 809.875 -330.753 729.47 -439.479 677.965L-439.051 677.061C-330.454 728.504 -48.0839 808.812 212.507 718.505C253.201 704.402 281.366 686.989 300.425 667.315C319.477 647.646 329.45 625.696 333.724 602.478C338 579.25 336.573 554.743 332.808 529.968C330.089 512.078 326.155 494.074 322.276 476.321L322.275 476.316L322.274 476.313L322.272 476.305C320.779 469.471 319.294 462.674 317.889 455.935C307.796 407.51 301.841 362.031 327.444 328.048C353.045 294.067 410.048 271.766 525.282 269.195C698.925 265.32 817.778 309.545 918.202 346.912C951.113 359.158 982.045 370.668 1012.28 379.506C1073.52 397.412 1131.91 404.376 1198.17 384.4C1264.44 364.419 1338.63 317.468 1431.42 227.427C1524.3 137.297 1601.79 110.578 1670.97 119.313C1740.1 128.043 1800.8 172.176 1860.12 223.417C1874.5 235.837 1888.8 248.674 1903.12 261.53L1903.12 261.532L1903.12 261.533C1947.91 301.753 1992.92 342.159 2041.27 370.569C2105.03 408.035 2174.54 424.587 2256.95 392.212L2257.31 393.143C2174.55 425.658 2104.71 409.009 2040.76 371.431C1992.32 342.966 1947.21 302.463 1902.39 262.226L1902.39 262.225C1888.09 249.381 1873.81 236.564 1859.47 224.174C1800.15 172.935 1739.65 128.995 1670.84 120.305C1602.08 111.621 1524.87 138.137 1432.12 228.144C1339.27 318.24 1264.94 365.311 1198.46 385.357C1131.95 405.408 1073.35 398.404 1012 380.466C981.677 371.602 950.691 360.073 917.744 347.814C817.344 310.457 698.736 266.324 525.304 270.194C410.091 272.765 353.537 295.075 328.243 328.65C302.95 362.222 308.761 407.241 318.868 455.731C320.268 462.446 321.75 469.227 323.241 476.05L323.243 476.06L323.244 476.069C327.127 493.836 331.072 511.891 333.797 529.818C337.57 554.643 339.012 579.275 334.708 602.659C330.401 626.053 320.346 648.187 301.143 668.01C281.946 687.828 253.629 705.312 212.835 719.45ZM-473.435 619.148C-364.709 670.653 -82.0528 751.058 178.879 660.633C219.673 646.495 247.99 629.011 267.187 609.193C286.389 589.37 296.445 567.236 300.752 543.842C305.056 520.458 303.614 495.827 299.84 471.001C297.116 453.074 293.171 435.019 289.289 417.252C287.796 410.422 286.313 403.635 284.912 396.914C274.806 348.424 268.994 303.405 294.287 269.833C319.581 236.258 376.135 213.948 491.348 211.377C664.779 207.508 783.388 251.64 883.788 288.997C916.735 301.256 947.721 312.785 978.041 321.649C1039.39 339.587 1098 346.591 1164.5 326.54C1230.99 306.494 1305.31 259.423 1398.16 169.327C1490.91 79.3201 1568.12 52.8044 1636.89 61.4884C1705.7 70.1776 1766.2 114.119 1825.51 165.357C1839.86 177.747 1854.13 190.564 1868.44 203.408L1868.44 203.409C1913.25 243.645 1958.36 284.149 2006.8 312.614C2070.76 350.192 2140.59 366.841 2223.36 334.326L2222.99 333.395C2140.58 365.77 2071.07 349.218 2007.31 311.752C1958.96 283.342 1913.96 242.936 1869.16 202.715L1869.16 202.713C1854.84 189.857 1840.55 177.02 1826.17 164.6C1766.85 113.359 1706.15 69.2265 1637.01 60.4962C1567.84 51.7607 1490.34 78.4798 1397.46 168.61C1304.67 258.651 1230.48 305.602 1164.21 325.583C1097.96 345.559 1039.57 338.595 978.321 320.69C948.089 311.851 917.157 300.341 884.246 288.095C783.822 250.728 664.968 206.503 491.326 210.378C376.092 212.949 319.089 235.251 293.488 269.231C267.885 303.214 273.84 348.693 283.933 397.118C285.338 403.857 286.823 410.654 288.316 417.488L288.318 417.496C292.198 435.252 296.133 453.258 298.852 471.151C302.617 495.926 304.044 520.433 299.768 543.661C295.494 566.879 285.522 588.829 266.469 608.498C247.41 628.172 219.244 645.586 178.551 659.688C-82.04 749.995 -364.41 669.687 -473.007 618.244L-473.435 619.148ZM-507.39 560.329C-398.664 611.834 -116.008 692.24 144.924 601.814C185.718 587.677 214.035 570.192 233.232 550.375C252.434 530.552 262.49 508.417 266.796 485.024C271.101 461.64 269.659 437.008 265.886 412.182C263.161 394.255 259.216 376.201 255.333 358.433L255.332 358.425L255.33 358.414L255.328 358.408C253.838 351.587 252.356 344.808 250.957 338.095C240.85 289.606 235.039 244.586 260.332 211.014C285.626 177.44 342.18 155.13 457.393 152.559C630.825 148.689 749.433 192.821 849.833 230.178L849.836 230.179C882.782 242.438 913.767 253.967 944.086 262.831C1005.44 280.768 1064.04 287.773 1130.55 267.722C1197.03 247.676 1271.36 200.604 1364.2 110.509C1456.96 20.5014 1534.16 -6.01428 1602.93 2.66968C1671.74 11.3589 1732.24 55.2999 1791.56 106.538C1805.9 118.928 1820.18 131.745 1834.48 144.59L1834.48 144.59C1879.29 184.827 1924.4 225.33 1972.85 253.796C2036.8 291.373 2106.64 308.022 2189.4 275.507L2189.04 274.577C2106.63 306.951 2037.12 290.399 1973.36 252.933C1925.01 224.524 1880 184.117 1835.21 143.897C1820.89 131.04 1806.59 118.202 1792.21 105.782C1732.89 54.5406 1672.19 10.4078 1603.06 1.67753C1533.88 -7.05802 1456.39 19.6611 1363.51 109.791C1270.72 199.833 1196.53 246.783 1130.26 266.764C1064 286.74 1005.61 279.776 944.366 261.871C914.136 253.033 883.205 241.524 850.296 229.278L850.294 229.278L850.291 229.276C749.867 191.909 631.013 147.684 457.371 151.559C342.137 154.13 285.134 176.432 259.533 210.412C233.93 244.395 239.885 289.874 249.978 338.299C251.383 345.039 252.868 351.836 254.361 358.669L254.363 358.677L254.364 358.68C258.243 376.435 262.178 394.44 264.897 412.333C268.662 437.108 270.089 461.615 265.813 484.843C261.539 508.061 251.566 530.011 232.514 549.679C213.455 569.353 185.289 586.767 144.596 600.869C-115.995 691.177 -398.365 610.869 -506.962 559.425L-507.39 560.329Z" fill="#283252"/>
</svg>
